<svg width="255" height="87" viewBox="0 0 255 87" fill="none" xmlns="http://www.w3.org/2000/svg">
    <rect width="255" height="87" fill="#49FFE6" />
    <path
        d="M81.7303 28.6094H86.4412V58.8672H101.652V62.5H81.7303V28.6094ZM109.336 62.5L121.969 28.6094H126.117L138.773 62.5H133.969L123.82 32.9922L124.523 33.0156L114.234 62.5H109.336ZM114.492 55.8906L115.617 52.4219H132.562L133.641 55.8906H114.492ZM162.09 63.0156C159.262 63.0156 156.957 62.7266 155.176 62.1484C153.395 61.5703 152.02 60.7578 151.051 59.7109C150.098 58.6484 149.434 57.3906 149.059 55.9375C148.699 54.4844 148.52 52.875 148.52 51.1094V40.4688C148.52 38.6719 148.692 37.0234 149.035 35.5234C149.395 34.0078 150.051 32.6953 151.004 31.5859C151.973 30.4766 153.34 29.6172 155.106 29.0078C156.887 28.3984 159.199 28.0938 162.043 28.0938C164.606 28.0938 166.715 28.3281 168.371 28.7969C170.027 29.25 171.317 29.9297 172.238 30.8359C173.16 31.7422 173.801 32.8672 174.16 34.2109C174.535 35.5391 174.723 37.0781 174.723 38.8281V39.1328L170.246 39.5312V38.8984C170.246 36.8516 169.981 35.3281 169.449 34.3281C168.934 33.3281 168.074 32.6719 166.871 32.3594C165.668 32.0469 164.059 31.8906 162.043 31.8906C160.059 31.8906 158.418 32.1172 157.121 32.5703C155.824 33.0078 154.856 33.7891 154.215 34.9141C153.574 36.0234 153.254 37.5859 153.254 39.6016V51.8359C153.254 53.8359 153.582 55.3672 154.238 56.4297C154.895 57.4922 155.879 58.2266 157.192 58.6328C158.52 59.0234 160.184 59.2188 162.184 59.2188C164.152 59.2188 165.723 59.0859 166.895 58.8203C168.082 58.5547 168.934 57.9531 169.449 57.0156C169.981 56.0625 170.246 54.5781 170.246 52.5625V52H174.723V52.2344C174.723 53.9375 174.559 55.4609 174.231 56.8047C173.918 58.1328 173.324 59.2578 172.449 60.1797C171.574 61.1016 170.301 61.8047 168.629 62.2891C166.973 62.7734 164.793 63.0156 162.09 63.0156Z"
        fill="black" />
</svg>